<svg width="512" height="512" viewBox="0 0 512 512" fill="none" xmlns="http://www.w3.org/2000/svg">
<path d="M352 480V512H160V480H352ZM480 352V160C480 121.383 479.932 95.6396 477.356 76.4824C474.905 58.2457 470.721 50.8377 465.941 46.0586C461.162 41.2795 453.754 37.0954 435.518 34.6436C416.36 32.068 390.617 32 352 32H160C121.383 32 95.6396 32.068 76.4824 34.6436C58.2457 37.0954 50.8377 41.2795 46.0586 46.0586C41.2795 50.8377 37.0954 58.2457 34.6436 76.4824C32.068 95.6396 32 121.383 32 160V352C32 390.617 32.068 416.36 34.6436 435.518C37.0954 453.754 41.2795 461.162 46.0586 465.941C50.8377 470.721 58.2457 474.905 76.4824 477.356C95.6396 479.932 121.383 480 160 480V512C85.1645 512 47.4546 512 23.9834 489.113L23.4316 488.568C0.000183105 465.137 0 427.425 0 352V160C0 85.1645 0.000150681 47.4546 22.8867 23.9834L23.4316 23.4316C46.8631 0.000183105 84.5753 0 160 0H352C427.425 0 465.137 0.000183105 488.568 23.4316C512 46.8631 512 84.5753 512 160V352C512 427.425 512 465.137 488.568 488.568C465.137 512 427.425 512 352 512V480C390.617 480 416.36 479.932 435.518 477.356C453.754 474.905 461.162 470.721 465.941 465.941C470.721 461.162 474.905 453.754 477.356 435.518C479.932 416.36 480 390.617 480 352Z" fill="currentColor"/>
<path d="M361.323 401.136C364.451 399.588 370.706 396.492 370.706 393.976C370.706 391.848 367.752 391.848 366.883 391.848H353.851C351.244 391.848 350.028 392.622 350.028 393.783C350.028 396.492 358.716 401.523 360.107 401.523C360.454 401.523 360.802 401.523 361.323 401.136ZM323.963 341.729L325.527 339.02C326.396 337.859 326.917 336.891 326.917 336.117C326.917 334.763 325.701 334.569 322.573 334.569H313.363C308.15 334.569 304.154 334.956 304.154 341.342V342.503C304.154 343.471 304.154 343.858 304.327 343.858C306.586 341.729 309.019 340.181 312.321 340.181C315.275 340.181 318.055 341.149 319.966 343.084L320.835 343.664C321.704 344.632 322.225 345.212 322.399 345.212C322.747 345.212 322.92 344.438 323.615 343.084C323.615 342.503 323.789 342.31 323.963 341.729ZM336.996 318.315H342.73C344.641 318.315 345.51 317.541 345.51 315.992C345.51 315.412 345.336 314.831 344.989 313.864C344.12 312.316 343.425 310.574 343.425 309.22C343.425 308.833 343.425 308.639 343.599 308.252V307.672C343.772 307.285 343.772 307.091 343.772 306.704C343.772 305.737 343.425 305.156 342.556 305.156L337.864 305.737C336.474 305.737 335.258 305.93 333.868 305.93C331.956 306.124 331.087 306.898 331.087 308.252C331.087 309.026 331.261 309.607 331.609 310.381C332.651 312.316 333.694 314.057 334.215 315.799C334.91 317.541 335.605 318.315 336.996 318.315ZM359.411 354.888C362.018 354.888 367.752 354.501 370.185 353.727C371.923 353.146 372.965 351.211 374.008 349.082C375.572 346.18 377.309 343.084 383.739 343.084C385.129 343.084 386.345 343.277 387.562 343.471L388.257 343.664C388.778 343.858 389.299 343.858 389.821 343.858C390.689 343.858 391.558 343.277 392.601 342.116C394.512 339.988 397.64 338.633 400.942 338.633C404.938 338.633 407.371 340.762 409.804 343.084L410.325 343.471C410.499 343.471 410.499 343.277 410.499 342.31V341.342C410.499 334.956 406.676 334.569 401.289 334.569H372.791C370.706 334.569 369.664 335.343 369.664 336.698C369.664 337.665 370.011 338.633 370.706 339.6C371.749 341.149 372.444 342.503 372.444 344.438C372.444 349.276 367.231 352.566 362.018 352.566C359.064 352.566 356.11 351.598 354.546 349.469C354.372 349.082 354.372 349.276 354.372 349.276C354.198 348.889 354.198 348.695 354.025 348.695C353.503 346.76 352.287 345.406 351.071 344.051C349.507 342.31 347.943 340.181 347.769 338.246V338.052C347.422 335.73 346.9 334.569 344.641 334.569H343.077C341.34 334.569 340.645 334.763 340.645 335.73C340.645 336.311 341.166 336.698 342.382 337.859C345.684 340.181 345.858 343.858 346.031 346.954C346.205 350.05 346.379 352.759 348.464 353.727C350.897 354.888 356.979 354.888 359.411 354.888ZM372.27 318.315H378.526C379.395 318.315 380.09 317.928 380.785 316.767C381.48 315.412 382.522 313.67 383.739 311.542C384.434 310.381 385.303 309.026 385.998 307.672C386.693 306.317 387.04 305.156 387.04 304.189C387.04 302.64 385.998 301.673 384.086 301.673H382.175C377.309 302.447 372.27 303.027 367.405 303.414C365.841 303.608 364.972 304.382 364.972 305.737C364.972 306.317 365.146 307.091 365.493 307.672C366.883 310.187 368.447 312.896 369.142 315.218C369.49 317.154 370.359 318.315 372.27 318.315ZM292.859 435C285.561 435 280.174 432.291 280.174 425.131C280.174 419.132 285.908 416.617 291.99 416.23C305.37 415.649 318.402 414.488 331.435 411.392C333.346 411.005 334.215 410.231 334.215 409.07C334.215 408.102 333.694 406.941 332.478 405.974C330.045 403.845 327.786 401.523 326.048 399.588C325.353 398.814 324.658 398.233 323.963 398.233C323.615 398.233 323.094 398.62 322.399 399.008C315.448 403.071 302.242 410.231 296.16 410.231C290.6 410.231 285.908 405.974 285.908 400.943C285.908 396.685 289.383 393.976 293.554 392.428C305.37 387.978 318.576 379.657 328.481 371.142C329.35 370.368 329.697 369.594 329.697 368.627C329.697 367.659 329.176 366.885 328.307 366.111C326.222 364.37 325.179 362.628 324.484 360.886L324.311 360.306C323.094 357.21 322.399 355.662 321.704 355.662C321.183 355.662 320.14 356.629 318.402 358.758C314.58 363.596 308.672 369.401 306.413 371.529C304.154 373.658 301.026 375.012 297.55 375.012C291.816 375.012 286.777 370.949 286.777 365.724C286.777 362.241 289.557 359.725 292.164 357.21L293.033 356.436C293.206 356.436 293.206 356.049 293.206 355.662C293.206 355.275 293.206 354.888 292.859 354.888V355.081H291.99C282.954 355.081 280 349.276 280 341.923C280 322.185 290.774 318.895 309.714 318.315C310.583 318.315 310.93 317.928 310.93 316.96C310.93 316.573 310.93 316.186 310.757 315.992C310.583 315.605 310.235 315.025 310.062 314.831C309.888 314.638 309.714 314.251 309.714 314.444V314.251C309.193 313.09 308.845 311.929 308.845 310.768V310.574L309.193 309.22V308.639C309.193 307.478 308.672 306.898 307.629 306.898C306.76 306.898 305.717 307.091 304.849 307.091C297.55 307.091 289.905 306.124 289.905 297.416C289.905 289.482 298.419 288.901 305.37 288.901C337.691 288.901 370.011 287.547 401.637 280.581C403.374 280.194 405.112 280 406.85 280C413.627 280 417.45 283.677 417.45 289.675C417.45 295.094 413.627 296.835 409.109 297.803C406.85 298.19 405.981 298.77 405.981 300.125C405.981 300.899 406.502 301.866 407.371 303.027C408.587 304.769 409.283 306.511 409.283 308.252C409.283 310.187 408.414 311.929 407.371 313.864C406.85 314.831 406.502 315.605 406.502 316.38C406.502 317.928 407.545 318.508 409.456 318.702C428.918 319.476 434.652 324.12 434.652 344.245C434.652 348.889 431.872 352.566 427.354 354.307C425.79 354.888 425.095 355.468 425.095 356.629C425.095 357.597 425.443 358.177 425.964 359.145C426.659 360.499 427.18 361.66 427.18 363.015C427.18 368.24 422.141 372.69 416.407 372.69C412.932 372.69 410.325 371.336 408.414 369.401L404.765 365.337C402.679 363.015 400.42 360.499 398.161 358.177C397.119 357.016 396.25 356.436 395.729 356.436C394.86 356.436 394.165 357.597 393.296 359.532C387.909 370.949 371.228 371.336 358.021 371.336H355.067C354.372 371.336 353.677 371.916 352.808 372.884C352.808 372.884 352.461 373.271 352.287 373.658L351.939 374.045C351.418 374.625 351.244 375.206 351.244 375.786C351.244 376.754 351.939 377.335 353.156 377.335H375.224C384.781 377.335 397.814 380.431 397.814 390.88C397.814 397.266 393.296 402.104 388.257 406.167C387.04 407.135 386.345 408.102 386.345 409.07C386.345 410.231 387.388 411.198 389.299 411.392C399.725 413.521 410.325 414.295 421.099 414.682C427.702 414.682 435 416.81 435 423.777C435 431.517 429.092 434.419 421.099 434.419C401.289 434.419 378.352 430.356 360.107 422.809C359.585 422.422 359.238 422.422 358.89 422.422C358.716 422.422 358.369 422.422 358.021 422.615C339.081 429.775 313.016 435 292.859 435Z" fill="currentColor"/>
<path fill-rule="evenodd" clip-rule="evenodd" d="M210.127 278C216 278 221.965 279.201 226.509 283.122C231.288 287.247 233 293.055 233 298.958V417.042C233 422.945 231.288 428.753 226.509 432.878C221.965 436.799 216 438 210.127 438C204.253 438 198.289 436.799 193.745 432.878C188.965 428.753 187.254 422.945 187.254 417.042V360.752C186.501 362.015 185.751 363.279 184.999 364.54C181.392 370.593 177.795 376.629 174.2 382.724C172.414 385.833 169.971 389.141 166.382 391.657C162.628 394.29 158.125 395.704 152.888 395.704C147.65 395.704 143.147 394.29 139.393 391.657C135.804 389.141 133.36 385.833 131.574 382.724L128.878 378.162C126.181 373.61 123.481 369.08 120.775 364.54C120.024 363.279 119.274 362.017 118.521 360.754V417.042C118.521 422.775 116.897 428.53 112.253 432.689C107.779 436.696 101.843 438 95.873 438C89.9995 438 84.0351 436.799 79.4912 432.878C74.7116 428.753 73 422.945 73 417.042V298.958C73 291.839 75.5166 285.685 81.4062 281.898C86.4918 278.629 92.8823 278 98.5771 278C108.874 278 117.63 281.919 122.96 290.84C132.885 306.776 143.09 322.88 153.126 339.099C157.437 332.148 161.727 325.194 166.021 318.229C171.579 309.216 177.148 300.184 182.774 291.149C185.897 285.987 189.858 282.381 195.014 280.295C199.826 278.348 205.056 278 210.127 278ZM93.2295 429.891C93.7867 429.939 94.3628 429.972 94.958 429.988L94.0723 429.951C93.7866 429.935 93.5058 429.915 93.2295 429.891ZM106.446 427.124C106.412 427.151 106.377 427.177 106.343 427.204C106.459 427.115 106.573 427.024 106.685 426.931L106.446 427.124ZM221.281 426.821C221.239 426.857 221.197 426.892 221.154 426.928C221.271 426.831 221.385 426.733 221.496 426.631L221.281 426.821ZM154.242 387.659C154.231 387.66 154.22 387.659 154.209 387.66C154.44 387.645 154.668 387.627 154.892 387.604L154.242 387.659ZM194.208 337.518C194.22 337.532 194.231 337.548 194.242 337.563C194.203 337.51 194.164 337.462 194.123 337.418L194.208 337.518ZM124.641 308.618C125.523 310.025 126.406 311.433 127.289 312.841C124.985 309.168 122.684 305.499 120.39 301.831L124.641 308.618ZM192.439 291.527C192.39 291.58 192.342 291.635 192.293 291.688C192.508 291.457 192.723 291.232 192.943 291.018L192.439 291.527ZM211.928 286.049C212.213 286.065 212.494 286.085 212.77 286.108C212.213 286.06 211.637 286.028 211.042 286.012L211.928 286.049ZM138.743 379.137L138.734 379.122C138.741 379.132 138.747 379.143 138.753 379.153C138.75 379.148 138.746 379.142 138.743 379.137Z" fill="currentColor"/>
<path fill-rule="evenodd" clip-rule="evenodd" d="M373.712 70C389.467 70 404.438 73.3 415.755 80.3877C427.349 87.6492 435.136 99.0044 435.136 113.938C435.136 125.255 430.722 137.188 420.663 145.506C435.626 153.966 443 169.429 443 183.127C443 199.948 435.289 212.242 422.491 219.884C410.26 227.188 393.865 230 376.152 230H307.813C301.479 230 295.302 228.854 290.53 225.382C285.31 221.583 283 215.92 283 209.776V90.2236C283 84.0798 285.31 78.417 290.53 74.6182C295.302 71.1457 301.479 70 307.813 70H373.712ZM373.401 198.497C372.705 198.519 371.995 198.529 371.271 198.529L372.029 198.525C372.492 198.521 372.95 198.511 373.401 198.497ZM326.271 195.064C326.274 195.118 326.279 195.172 326.284 195.225C326.272 195.101 326.262 194.974 326.258 194.845L326.271 195.064ZM334.254 190.529H371.271C378.798 190.529 383.274 189.234 385.695 187.555C387.547 186.271 389.034 184.21 389.034 179.46C389.034 176.15 387.693 173.835 385.104 172.05C382.223 170.064 377.528 168.635 371.271 168.635H334.254V190.529ZM329.829 160.652C329.69 160.662 329.555 160.677 329.424 160.695C329.63 160.666 329.845 160.648 330.071 160.64L329.829 160.652ZM334.254 129.165H366.661C373.146 129.165 376.397 127.64 377.982 126.211C379.423 124.912 380.627 122.662 380.627 118.34C380.627 114.872 379.506 113.19 378.042 112.096C376.203 110.722 372.677 109.471 366.661 109.471H334.254V129.165ZM383.178 105.955C382.835 105.683 382.477 105.425 382.104 105.178C382.353 105.342 382.595 105.512 382.83 105.688C382.948 105.775 383.063 105.864 383.178 105.955ZM329.829 101.487C329.79 101.49 329.752 101.494 329.714 101.497C329.83 101.487 329.949 101.479 330.071 101.475L329.829 101.487ZM388.607 119.426V119.418C388.603 119.535 388.597 119.652 388.591 119.768C388.596 119.654 388.603 119.54 388.607 119.426Z" fill="currentColor"/>
<path fill-rule="evenodd" clip-rule="evenodd" d="M210.625 70C215.207 70 220.311 70.7702 224.576 73.1377C229.216 75.7137 233 80.3783 233 87.0156C233 90.2977 232.17 93.2636 231.235 95.7139L231.188 95.8369L231.138 95.957L181.568 214.13L181.567 214.129C179.267 219.777 174.686 223.738 169.82 226.209C164.879 228.719 159.097 230 153.372 230C147.723 230 141.915 228.811 136.885 226.358C131.878 223.917 127.128 219.947 124.684 214.139L124.68 214.13L75.1094 95.957C73.7525 92.8895 73 89.6469 73 86.2842C73 82.9056 74.0259 79.7696 76.0596 77.1758C78.0022 74.6982 80.5061 73.1659 82.8076 72.2031C87.2286 70.3537 92.3775 70 96.3662 70C102.065 70 107.502 71.1018 112.154 73.7734C116.911 76.5051 120.4 80.6297 122.405 85.8057L153.138 164.357L184.098 85.7881C188.428 74.6352 198.946 70 210.625 70ZM150.836 221.899C151.393 221.943 151.953 221.973 152.513 221.988L151.654 221.954C151.381 221.94 151.108 221.921 150.836 221.899ZM192.411 86.8232C193.168 85.4182 194.11 84.1775 195.228 83.1035C194.908 83.4104 194.603 83.7304 194.312 84.0645C193.877 84.5655 193.474 85.0973 193.104 85.6592C192.858 86.0337 192.627 86.4219 192.411 86.8232Z" fill="currentColor"/>
</svg>
