<svg xmlns="http://www.w3.org/2000/svg" version="1.1" xmlns:xlink="http://www.w3.org/1999/xlink" xmlns:svgjs="http://svgjs.dev/svgjs" width="1732" height="1737"><svg width="1732" height="1737" xmlns="http://www.w3.org/2000/svg" xmlns:xlink="http://www.w3.org/1999/xlink" xml:space="preserve" overflow="hidden"><g transform="translate(-784 0)"><rect x="784" y="0" width="1732" height="1737" fill="#F9A93D"></rect><path d="M1343.97 413.281C1262.88 413.281 1197.15 479.017 1197.15 560.106L1197.15 1172.16C1197.15 1253.25 1262.88 1318.99 1343.97 1318.99L1956.03 1318.99C2037.12 1318.99 2102.85 1253.25 2102.85 1172.16L2102.85 560.106C2102.85 479.017 2037.12 413.281 1956.03 413.281ZM1337.54 348 1962.46 348C2075.98 348 2168 440.024 2168 553.542L2168 1178.46C2168 1291.98 2075.98 1384 1962.46 1384L1337.54 1384C1224.02 1384 1132 1291.98 1132 1178.46L1132 553.542C1132 440.024 1224.02 348 1337.54 348Z" fill-rule="evenodd"></path><path d="M1351.75 503C1366.84 503 1380.17 506.535 1391.75 513.605 1403.33 520.675 1410.61 529.959 1413.59 541.458L1418.68 561.269C1421.87 574.632 1426.44 591.336 1432.39 611.381 1438.34 631.426 1445.35 652.17 1453.43 673.613L1497.73 540.992C1500.71 529.648 1508.04 520.481 1519.73 513.488 1531.41 506.496 1544.8 503 1559.89 503 1563.71 503 1567.54 503.233 1571.36 503.699 1586.66 506.03 1599.09 511.43 1608.66 519.898 1618.22 528.367 1623 538.117 1623 549.149 1623 551.946 1622.68 554.743 1622.04 557.54L1613.76 588.073C1608.44 608.429 1601.17 632.708 1591.92 660.91 1582.68 689.112 1572.21 716.11 1560.53 741.905 1538.21 787.122 1515.26 816.023 1491.68 828.609 1480.2 834.203 1468.09 837 1455.34 837 1441.53 837 1428.57 833.737 1416.45 827.211 1392.23 812.138 1369.49 782.771 1348.24 739.108 1336.56 713.158 1326.3 686.238 1317.48 658.346 1308.67 630.455 1301.71 606.564 1296.61 586.675L1288.96 556.841C1288.32 554.199 1288 551.635 1288 549.149 1288 538.117 1292.89 528.328 1302.66 519.782 1312.44 511.236 1325.19 505.875 1340.91 503.699 1344.52 503.233 1348.14 503 1351.75 503Z" fill-rule="evenodd"></path><path d="M1809.13 591.802 1809.13 748.198 1879.18 748.198 1836.87 716.732C1819.53 703.058 1810.86 687.986 1810.86 671.515 1810.86 661.415 1814.33 651.393 1821.26 641.448L1858.37 591.802ZM1743.24 503 1869.82 503C1891.55 503 1911.78 506.496 1930.5 513.488 1949.23 520.481 1964.49 530.27 1976.28 542.856 1988.53 556.996 1994.66 571.758 1994.66 587.141 1994.66 599.883 1990.38 612.313 1981.83 624.433L1949.23 668.019 1977.32 688.763C1988.65 697.154 1997.26 706.477 2003.16 716.732 2009.05 726.988 2012 737.554 2012 748.431 2012 760.551 2008.19 772.515 2000.56 784.324 1989.46 800.484 1973.1 813.304 1951.48 822.782 1929.87 832.261 1906 837 1879.87 837L1743.24 837C1724.97 837 1709.37 832.649 1696.42 823.948 1683.47 815.246 1677 804.758 1677 792.482L1677 547.285C1677 535.009 1683.47 524.56 1696.42 515.936 1709.37 507.312 1724.97 503 1743.24 503Z" fill-rule="evenodd"></path><path d="M1338.3 895C1345.68 895 1352.55 896.325 1358.92 898.976 1367.31 901.003 1374.35 905.525 1380.05 912.542 1397.99 936.555 1423.39 976.161 1456.25 1031.36 1465.81 1016.39 1475.37 1000.72 1484.93 984.347 1498.51 960.958 1510.83 941.233 1521.9 925.172 1533.3 905.057 1550.23 895 1572.7 895 1586.62 895 1598.48 899.561 1608.29 908.683 1618.1 917.805 1623 928.837 1623 941.779L1623 1182.22C1623 1195.16 1618.1 1206.2 1608.29 1215.32 1598.48 1224.44 1586.62 1229 1572.7 1229 1558.78 1229 1546.88 1224.44 1536.99 1215.32 1527.09 1206.2 1522.15 1195.16 1522.15 1182.22L1522.15 1065.98 1487.69 1120.01C1480.15 1130.92 1469.42 1136.53 1455.5 1136.85 1441.42 1136.38 1430.6 1130.69 1423.06 1119.77 1419.54 1114.31 1408.13 1095.37 1388.85 1062.94L1388.85 1182.22C1388.85 1195.16 1383.91 1206.2 1374.01 1215.32 1364.12 1224.44 1352.22 1229 1338.3 1229 1324.38 1229 1312.52 1224.44 1302.71 1215.32 1292.9 1206.2 1288 1195.16 1288 1182.22L1288 941.779C1288 928.837 1292.9 917.805 1302.71 908.683 1312.52 899.561 1324.38 895 1338.3 895Z" fill-rule="evenodd"></path><path d="M1844.67 987.532C1834.26 987.532 1824.97 989.086 1816.78 992.193 1815.89 992.504 1814.84 992.815 1813.62 993.126 1812.41 993.436 1811.3 993.786 1810.3 994.175 1809.31 994.563 1808.81 995.223 1808.81 996.156L1808.81 1083.56 1880.19 1083.56 1880.19 996.156C1880.19 995.223 1879.69 994.563 1878.7 994.175 1877.7 993.786 1876.59 993.436 1875.38 993.126 1874.16 992.815 1873.11 992.504 1872.22 992.193 1864.03 989.086 1854.85 987.532 1844.67 987.532ZM1844.67 895C1876.76 895 1905.42 899.778 1930.66 909.335 1955.89 918.891 1975.76 931.399 1990.25 946.86 2004.75 962.321 2012 978.753 2012 996.156L2012 1182.85C2012 1195.59 2005.58 1206.47 1992.74 1215.48 1979.91 1224.49 1964.41 1229 1946.26 1229 1928.11 1229 1912.56 1224.49 1899.61 1215.48 1886.67 1206.47 1880.19 1195.59 1880.19 1182.85L1880.19 1152.78 1808.81 1152.78 1808.81 1182.62C1808.81 1195.36 1802.39 1206.24 1789.55 1215.25 1776.71 1224.26 1761.11 1228.77 1742.74 1228.77 1724.59 1228.77 1709.09 1224.26 1696.26 1215.25 1683.42 1206.24 1677 1195.36 1677 1182.62L1677 996.156C1677 978.753 1684.25 962.321 1698.75 946.86 1713.24 931.399 1733.11 918.891 1758.34 909.335 1783.58 899.778 1812.35 895 1844.67 895Z" fill-rule="evenodd"></path></g></svg><style>@media (prefers-color-scheme: light) { :root { filter: none; } }
@media (prefers-color-scheme: dark) { :root { filter: none; } }
</style></svg>